<svg width="13" height="9" viewBox="0 0 13 9" fill="none" xmlns="http://www.w3.org/2000/svg">
<path d="M6.22826 8.22726C5.90946 8.22766 5.60593 8.09072 5.39524 7.85146L0.668352 2.47837C0.357629 2.10806 0.399352 1.55742 0.762326 1.23816C1.1253 0.918895 1.67676 0.947797 2.00437 1.30325L6.13768 6.00181C6.16055 6.0279 6.19356 6.04286 6.22826 6.04286C6.26296 6.04286 6.29597 6.0279 6.31884 6.00181L10.4522 1.30325C10.6597 1.05592 10.9849 0.940405 11.3019 1.0014C11.619 1.06239 11.8781 1.29032 11.9791 1.59699C12.08 1.90367 12.007 2.24097 11.7882 2.47837L7.06273 7.84953C6.85168 8.08938 6.54774 8.22696 6.22826 8.22726Z" fill="black"/>
</svg>
