<svg width="17" height="16" viewBox="0 0 17 16" fill="none" xmlns="http://www.w3.org/2000/svg">
<path fill-rule="evenodd" clip-rule="evenodd" d="M15.9253 9.33335C16.1102 9.33468 16.2865 9.41183 16.4127 9.54668C16.5392 9.67886 16.6049 9.85761 16.5939 10.04C16.393 13.3874 13.6122 15.9997 10.2492 16H6.89304C3.53009 15.9997 0.749298 13.3874 0.548398 10.04C0.53959 9.85806 0.604657 9.68023 0.72891 9.54668C0.854185 9.41018 1.0314 9.33272 1.21696 9.33335H3.63581C3.78322 9.33473 3.91414 9.23967 3.95806 9.09935C4.13266 8.54572 4.64632 8.1683 5.22832 8.16601H8.57447C9.15647 8.1683 9.67014 8.54572 9.84474 9.09935C9.8883 9.23849 10.0175 9.33327 10.1636 9.33335H13.7518C13.9364 9.33335 14.0861 9.18411 14.0861 9.00001V2.00001C14.0868 1.73655 13.9319 1.49736 13.6908 1.38968C13.4497 1.282 13.1675 1.32602 12.9709 1.50201L12.6968 1.77535C12.6076 1.86493 12.5768 1.99706 12.6173 2.11668C12.8504 2.80327 12.6735 3.56229 12.1606 4.07601L12.0269 4.21268C11.7658 4.47294 11.3426 4.47294 11.0816 4.21268L9.31323 2.44868C9.05224 2.18835 9.05224 1.76635 9.31323 1.50601L9.45028 1.36935C9.97158 0.872756 10.7242 0.701707 11.4098 0.924014C11.5289 0.96174 11.6591 0.930112 11.7475 0.842014L12.057 0.533348C12.6419 -0.00563735 13.4913 -0.148438 14.2211 0.169491C14.9509 0.487419 15.423 1.20583 15.4239 2.00001V9.00001C15.4239 9.18411 15.5735 9.33335 15.7582 9.33335H15.9253ZM8.23685 13.5C8.42146 13.5 8.57113 13.3508 8.57113 13.1667V9.83335C8.57113 9.64925 8.42146 9.50001 8.23685 9.50001H5.5626C5.37798 9.50001 5.22832 9.64925 5.22832 9.83335V13.1667C5.22832 13.3508 5.37798 13.5 5.5626 13.5H8.23685Z" fill="black"/>
<path d="M6.56538 4.05868C6.6619 4.05952 6.75747 4.03951 6.8455 4.00002L8.05961 3.44135C8.27685 3.34191 8.42438 3.13446 8.44664 2.89714C8.4689 2.65982 8.36249 2.42869 8.16751 2.2908C7.97253 2.15292 7.7186 2.12924 7.50136 2.22868L6.28525 2.78668C6.00015 2.91786 5.84501 3.2292 5.91236 3.53501C5.9797 3.84082 6.25139 4.05869 6.56538 4.05868Z" fill="black"/>
<path d="M9.98973 7.67273C10.3292 7.81715 10.7219 7.65988 10.8669 7.3214L11.3924 6.09473C11.5279 5.75826 11.3689 5.37548 11.0344 5.23312C10.7 5.09077 10.3128 5.24106 10.1629 5.5714L9.64074 6.80007C9.49684 7.13716 9.65269 7.52688 9.98973 7.67273Z" fill="black"/>
<path d="M7.55881 6.05074C7.81859 6.31229 8.24179 6.31438 8.50415 6.05541L9.45485 5.11807C9.71011 4.85799 9.70904 4.44183 9.45245 4.18304C9.19585 3.92426 8.77855 3.91849 8.51485 4.17007L7.56416 5.10807C7.30168 5.36693 7.29929 5.78894 7.55881 6.05074Z" fill="black"/>
</svg>
