<svg width="15" height="12" viewBox="0 0 15 12" fill="none" xmlns="http://www.w3.org/2000/svg">
<path d="M6.23055 1.93553H8.14464C9.03039 1.93633 9.79944 2.54408 10.0026 3.40378C10.0196 3.47545 10.0837 3.52611 10.1576 3.52628H13.0907C13.133 3.52643 13.1737 3.50979 13.2036 3.48001C13.2336 3.45024 13.2504 3.40979 13.2504 3.36761V1.77628C13.2504 1.43876 13.1159 1.11507 12.8765 0.876456C12.6371 0.637846 12.3125 0.503874 11.974 0.504028H2.40121C2.06272 0.503874 1.73805 0.637846 1.49865 0.876456C1.25926 1.11507 1.12476 1.43876 1.12476 1.77628V3.36761C1.12476 3.40979 1.1416 3.45024 1.17157 3.48001C1.20153 3.50979 1.24216 3.52643 1.28446 3.52628H4.2176C4.29162 3.52654 4.35596 3.47569 4.37262 3.40378C4.57575 2.54408 5.34481 1.93633 6.23055 1.93553Z" fill="black"/>
<path d="M0.80595 4.4812C0.636634 4.48105 0.474209 4.54805 0.354485 4.66743C0.234761 4.78682 0.167569 4.94878 0.167725 5.11762V8.45837C0.167724 8.76083 0.381214 9.02151 0.678422 9.08195C0.75258 9.09716 0.805838 9.1622 0.80595 9.2377V10.5263C0.80595 10.8778 1.09169 11.1627 1.44417 11.1627C1.79666 11.1627 2.0824 10.8778 2.0824 10.5263V9.25403C2.08224 9.21185 2.09894 9.17135 2.1288 9.14146C2.15865 9.11158 2.19921 9.09478 2.24152 9.09478H12.1337C12.176 9.09478 12.2166 9.11158 12.2464 9.14146C12.2763 9.17135 12.293 9.21185 12.2928 9.25403V10.5263C12.2928 10.8778 12.5786 11.1627 12.931 11.1627C13.2835 11.1627 13.5693 10.8778 13.5693 10.5263V9.2377C13.5694 9.1622 13.6226 9.09716 13.6968 9.08195C13.994 9.02151 14.2075 8.76083 14.2075 8.45837V5.11762C14.2077 4.94878 14.1405 4.78682 14.0207 4.66743C13.901 4.54805 13.7386 4.48105 13.5693 4.4812H0.80595Z" fill="black"/>
</svg>
