<svg width="17" height="16" viewBox="0 0 17 16" fill="none" xmlns="http://www.w3.org/2000/svg">
<path fill-rule="evenodd" clip-rule="evenodd" d="M0.8125 8C0.8125 3.58172 4.4044 0 8.83523 0C13.2639 0.00514317 16.8528 3.58385 16.858 8C16.858 12.4183 13.2661 16 8.83523 16C4.4044 16 0.8125 12.4183 0.8125 8ZM8.89005 11.6593L13.4663 5.46667C13.6211 5.27572 13.658 5.01545 13.5626 4.78918C13.4671 4.56291 13.2547 4.40726 13.0096 4.38403C12.7645 4.36079 12.5265 4.47373 12.39 4.678L8.22684 10.312L5.50178 8.138C5.21341 7.90788 4.79256 7.95444 4.56179 8.242C4.33102 8.52956 4.37771 8.94921 4.66608 9.17933L7.93401 11.7847C8.07687 11.896 8.2586 11.9455 8.43838 11.9219C8.61816 11.8983 8.78091 11.8037 8.89005 11.6593Z" fill="#FFAC12"/>
</svg>
