<svg width="17" height="16" viewBox="0 0 17 16" fill="none" xmlns="http://www.w3.org/2000/svg">
<path d="M5.62877 3C5.998 3 6.29733 2.70152 6.29733 2.33333V0.666667C6.29733 0.298477 5.998 0 5.62877 0C5.25953 0 4.96021 0.298477 4.96021 0.666667V2.33333C4.96021 2.70152 5.25953 3 5.62877 3Z" fill="black"/>
<path d="M3.95726 4.66667C3.95726 4.29848 3.65793 4 3.28869 4H1.61729C1.24806 4 0.94873 4.29848 0.94873 4.66667C0.94873 5.03486 1.24806 5.33333 1.61729 5.33333H3.28869C3.65793 5.33333 3.95726 5.03486 3.95726 4.66667Z" fill="black"/>
<path d="M3.28869 10.6666H1.61729C1.24806 10.6666 0.94873 10.9651 0.94873 11.3333C0.94873 11.7015 1.24806 12 1.61729 12H3.28869C3.65793 12 3.95726 11.7015 3.95726 11.3333C3.95726 10.9651 3.65793 10.6666 3.28869 10.6666Z" fill="black"/>
<path d="M12.3143 0C11.9451 0 11.6458 0.298477 11.6458 0.666667V2.33333C11.6458 2.70152 11.9451 3 12.3143 3C12.6835 3 12.9829 2.70152 12.9829 2.33333V0.666667C12.9829 0.298477 12.6835 0 12.3143 0Z" fill="black"/>
<path d="M5.62877 13C5.25953 13 4.96021 13.2985 4.96021 13.6667V15.3333C4.96021 15.7015 5.25953 16 5.62877 16C5.998 16 6.29733 15.7015 6.29733 15.3333V13.6667C6.29733 13.2985 5.998 13 5.62877 13Z" fill="black"/>
<path d="M12.3143 13C11.9451 13 11.6458 13.2985 11.6458 13.6667V15.3333C11.6458 15.7015 11.9451 16 12.3143 16C12.6835 16 12.9829 15.7015 12.9829 15.3333V13.6667C12.9829 13.2985 12.6835 13 12.3143 13Z" fill="black"/>
<path d="M14.6542 5.33333H16.3256C16.6948 5.33333 16.9941 5.03486 16.9941 4.66667C16.9941 4.29848 16.6948 4 16.3256 4H14.6542C14.2849 4 13.9856 4.29848 13.9856 4.66667C13.9856 5.03486 14.2849 5.33333 14.6542 5.33333Z" fill="black"/>
<path d="M16.3256 10.6666H14.6542C14.2849 10.6666 13.9856 10.9651 13.9856 11.3333C13.9856 11.7015 14.2849 12 14.6542 12H16.3256C16.6948 12 16.9941 11.7015 16.9941 11.3333C16.9941 10.9651 16.6948 10.6666 16.3256 10.6666Z" fill="black"/>
<path fill-rule="evenodd" clip-rule="evenodd" d="M12.3144 4C12.6836 4 12.9829 4.29848 12.9829 4.66667V11.3333C12.9829 11.7015 12.6836 12 12.3144 12H5.62877C5.25953 12 4.96021 11.7015 4.96021 11.3333V4.66667C4.96021 4.29848 5.25953 4 5.62877 4H12.3144ZM11.3115 10.6667C11.4962 10.6667 11.6458 10.5174 11.6458 10.3333V5.66667C11.6458 5.48257 11.4962 5.33333 11.3115 5.33333H6.63161C6.44699 5.33333 6.29733 5.48257 6.29733 5.66667V10.3333C6.29733 10.5174 6.44699 10.6667 6.63161 10.6667H11.3115Z" fill="black"/>
</svg>
