<svg width="30" height="26" viewBox="0 0 30 26" fill="none" xmlns="http://www.w3.org/2000/svg">
<g filter="url(#filter0_d_0_53)">
<path d="M26 2.11613C25.1819 2.475 24.3101 2.71288 23.4013 2.82838C24.3363 2.27013 25.0499 1.39287 25.3854 0.3355C24.5136 0.85525 23.5511 1.22238 22.5254 1.42725C21.6976 0.545875 20.5179 0 19.2309 0C16.7339 0 14.7236 2.02675 14.7236 4.51137C14.7236 4.86888 14.7539 5.21263 14.8281 5.53988C11.0785 5.357 7.76062 3.55988 5.53175 0.82225C5.14262 1.49738 4.91438 2.27012 4.91438 3.102C4.91438 4.664 5.71875 6.04862 6.91775 6.85025C6.19312 6.8365 5.48225 6.62613 4.88 6.29475C4.88 6.3085 4.88 6.32638 4.88 6.34425C4.88 8.536 6.44338 10.3565 8.4935 10.7759C8.12638 10.8763 7.72625 10.9244 7.311 10.9244C7.02225 10.9244 6.73075 10.9079 6.45712 10.8474C7.0415 12.6335 8.69975 13.9466 10.6715 13.9893C9.137 15.1896 7.18863 15.9129 5.07938 15.9129C4.7095 15.9129 4.35475 15.8964 4 15.851C5.99787 17.1394 8.36563 17.875 10.919 17.875C19.2185 17.875 23.756 11 23.756 5.04075C23.756 4.84137 23.7491 4.64887 23.7395 4.45775C24.6346 3.8225 25.3867 3.02913 26 2.11613Z" fill="white"/>
</g>
<defs>
<filter id="filter0_d_0_53" x="0" y="0" width="30" height="25.875" filterUnits="userSpaceOnUse" color-interpolation-filters="sRGB">
<feFlood flood-opacity="0" result="BackgroundImageFix"/>
<feColorMatrix in="SourceAlpha" type="matrix" values="0 0 0 0 0 0 0 0 0 0 0 0 0 0 0 0 0 0 127 0" result="hardAlpha"/>
<feOffset dy="4"/>
<feGaussianBlur stdDeviation="2"/>
<feComposite in2="hardAlpha" operator="out"/>
<feColorMatrix type="matrix" values="0 0 0 0 0 0 0 0 0 0 0 0 0 0 0 0 0 0 0.25 0"/>
<feBlend mode="normal" in2="BackgroundImageFix" result="effect1_dropShadow_0_53"/>
<feBlend mode="normal" in="SourceGraphic" in2="effect1_dropShadow_0_53" result="shape"/>
</filter>
</defs>
</svg>
